<svg xmlns="http://www.w3.org/2000/svg">
  <symbol id="google-color-logo" viewBox="0 0 74 24">
    <path fill="#4285F4" d="M9.24 8.19v2.46h5.88c-.18 1.38-.64 2.39-1.34 3.1-.86.86-2.2 1.8-4.54 1.8-3.62 0-6.45-2.92-6.45-6.54s2.83-6.54 6.45-6.54c1.95 0 3.38.77 4.43 1.76L15.4 2.5C13.94 1.08 11.98 0 9.24 0 4.28 0 .11 4.04.11 9s4.17 9 9.13 9c2.68 0 4.7-.88 6.28-2.52 1.62-1.62 2.13-3.91 2.13-5.75 0-.57-.04-1.1-.13-1.54H9.24z"></path><path fill="#EA4335" d="M25 6.19c-3.21 0-5.83 2.44-5.83 5.81 0 3.34 2.62 5.81 5.83 5.81s5.83-2.46 5.83-5.81c0-3.37-2.62-5.81-5.83-5.81zm0 9.33c-1.76 0-3.28-1.45-3.28-3.52 0-2.09 1.52-3.52 3.28-3.52s3.28 1.43 3.28 3.52c0 2.07-1.52 3.52-3.28 3.52z"></path><path fill="#4285F4" d="M53.58 7.49h-.09c-.57-.68-1.67-1.3-3.06-1.3C47.53 6.19 45 8.72 45 12c0 3.26 2.53 5.81 5.43 5.81 1.39 0 2.49-.62 3.06-1.32h.09v.81c0 2.22-1.19 3.41-3.1 3.41-1.56 0-2.53-1.12-2.93-2.07l-2.22.92c.64 1.54 2.33 3.43 5.15 3.43 2.99 0 5.52-1.76 5.52-6.05V6.49h-2.42v1zm-2.93 8.03c-1.76 0-3.1-1.5-3.1-3.52 0-2.05 1.34-3.52 3.1-3.52 1.74 0 3.1 1.5 3.1 3.54.01 2.03-1.36 3.5-3.1 3.5z"></path><path fill="#FBBC05" d="M38 6.19c-3.21 0-5.83 2.44-5.83 5.81 0 3.34 2.62 5.81 5.83 5.81s5.83-2.46 5.83-5.81c0-3.37-2.62-5.81-5.83-5.81zm0 9.33c-1.76 0-3.28-1.45-3.28-3.52 0-2.09 1.52-3.52 3.28-3.52s3.28 1.43 3.28 3.52c0 2.07-1.52 3.52-3.28 3.52z"></path><path fill="#34A853" d="M58 .24h2.51v17.57H58z"></path><path fill="#EA4335" d="M68.26 15.52c-1.3 0-2.22-.59-2.82-1.76l7.77-3.21-.26-.66c-.48-1.3-1.96-3.7-4.97-3.7-2.99 0-5.48 2.35-5.48 5.81 0 3.26 2.46 5.81 5.76 5.81 2.66 0 4.2-1.63 4.84-2.57l-1.98-1.32c-.66.96-1.56 1.6-2.86 1.6zm-.18-7.15c1.03 0 1.91.53 2.2 1.28l-5.25 2.17c0-2.44 1.73-3.45 3.05-3.45z"></path>
  </symbol>

  <symbol id="google-solid-logo" viewBox="0 0 74 24">
    <path fill="#fff" d="M9.24 8.19v2.46h5.88c-.18 1.38-.64 2.39-1.34 3.1-.86.86-2.2 1.8-4.54 1.8-3.62 0-6.45-2.92-6.45-6.54s2.83-6.54 6.45-6.54c1.95 0 3.38.77 4.43 1.76L15.4 2.5C13.94 1.08 11.98 0 9.24 0 4.28 0 .11 4.04.11 9s4.17 9 9.13 9c2.68 0 4.7-.88 6.28-2.52 1.62-1.62 2.13-3.91 2.13-5.75 0-.57-.04-1.1-.13-1.54H9.24zm15.76-2c-3.21 0-5.83 2.44-5.83 5.81 0 3.34 2.62 5.81 5.83 5.81s5.83-2.46 5.83-5.81c0-3.37-2.62-5.81-5.83-5.81zm0 9.33c-1.76 0-3.28-1.45-3.28-3.52 0-2.09 1.52-3.52 3.28-3.52s3.28 1.43 3.28 3.52c0 2.07-1.52 3.52-3.28 3.52zm28.58-8.03h-.09c-.57-.68-1.67-1.3-3.06-1.3C47.53 6.19 45 8.72 45 12c0 3.26 2.53 5.81 5.43 5.81 1.39 0 2.49-.62 3.06-1.32h.09v.81c0 2.22-1.19 3.41-3.1 3.41-1.56 0-2.53-1.12-2.93-2.07l-2.22.92c.64 1.54 2.33 3.43 5.15 3.43 2.99 0 5.52-1.76 5.52-6.05V6.49h-2.42v1zm-2.93 8.03c-1.76 0-3.1-1.5-3.1-3.52 0-2.05 1.34-3.52 3.1-3.52 1.74 0 3.1 1.5 3.1 3.54.01 2.03-1.36 3.5-3.1 3.5zM38 6.19c-3.21 0-5.83 2.44-5.83 5.81 0 3.34 2.62 5.81 5.83 5.81s5.83-2.46 5.83-5.81c0-3.37-2.62-5.81-5.83-5.81zm0 9.33c-1.76 0-3.28-1.45-3.28-3.52 0-2.09 1.52-3.52 3.28-3.52s3.28 1.43 3.28 3.52c0 2.07-1.52 3.52-3.28 3.52zM58 .24h2.51v17.57H58zm10.26 15.28c-1.3 0-2.22-.59-2.82-1.76l7.77-3.21-.26-.66c-.48-1.3-1.96-3.7-4.97-3.7-2.99 0-5.48 2.35-5.48 5.81 0 3.26 2.46 5.81 5.76 5.81 2.66 0 4.2-1.63 4.84-2.57l-1.98-1.32c-.66.96-1.56 1.6-2.86 1.6zm-.18-7.15c1.03 0 1.91.53 2.2 1.28l-5.25 2.17c0-2.44 1.73-3.45 3.05-3.45z"></path>
  </symbol>

  <symbol id="paint" viewBox="0 0 38 37">
    <path fill="#fff" d="M9.626 12.318l15.556 15.556-8.839 8.84a.5.5 0 01-.707 0l-1.757-1.758a1 1 0 01-.213-1.1l1.404-3.28a.3.3 0 00-.396-.394l-3.25 1.42a1 1 0 01-1.108-.208L5.354 26.43a1 1 0 01-.272-.91l.475-2.287a.3.3 0 00-.353-.355l-2.298.47a1 1 0 01-.908-.273L.787 21.864a.5.5 0 010-.707l8.839-8.839zM35.789 1.711c1.802 1.803 1.747 4.78-.125 6.652l-9.184 6.814a1 1 0 00-.111 1.51l5.354 5.354a.5.5 0 010 .707l-3.359 3.359a.5.5 0 01-.707 0L11.393 9.843a.5.5 0 010-.707l3.36-3.359a.5.5 0 01.706 0l5.354 5.354a1 1 0 001.51-.111l6.814-9.184c1.871-1.872 4.849-1.927 6.652-.125zm-2.033 2.033c-.721-.72-1.912-.698-2.66.05-.75.749-.772 1.94-.05 2.66.72.722 1.911.7 2.66-.049.748-.749.77-1.94.05-2.66z"/>
  </symbol>

  <symbol id="pattern" viewBox="0 0 38 38">
    <path fill="#fff" d="M15 2a5.657 5.657 0 118 8 5.657 5.657 0 01-8-8zM15 26a5.657 5.657 0 118 8 5.657 5.657 0 01-8-8zM22 18l8-8 8 8-8 8zM0 18l8-8 8 8-8 8z"/>
  </symbol>

  <symbol id="plus" viewBox="0 0 38 38">
    <circle fill="none" cx="19" cy="19" r="17" stroke="#fff" stroke-width="4"/>
    <rect width="4" height="20" x="17" y="9" fill="#fff"/>
    <rect width="20" height="4" x="9" y="17" fill="#fff"/>
  </symbol>

  <symbol id="shape-0" viewBox="0 0 220 336">
    <path d="M124.045 288.198l-8.362.104a4.182 4.182 0 00-4.131 4.183v38.332a4.183 4.183 0 01-4.185 4.183H5.186c-2.927 0-4.949-2.932-3.91-5.668L124.765 3.7c1.443-3.805 6.914-3.52 7.952.413l86.142 325.631c.702 2.654-1.299 5.255-4.043 5.255h-82.355a4.18 4.18 0 01-4.182-4.183v-38.435a4.181 4.181 0 00-4.234-4.184z"/>
  </symbol>

  <symbol id="shape-1" viewBox="0 0 472 204">
    <path d="M412.293 70.839l11.107 20.58a3.314 3.314 0 01-1.417 4.528l-37.768 19.31a3.314 3.314 0 00-1.445 4.475l2.733 5.284a3.356 3.356 0 004.506 1.436l38.063-19.463a3.354 3.354 0 014.479 1.386l39.047 72.346c1.196 2.214-.419 4.895-2.947 4.895h-60.732c-1.847 0-3.345 1.488-3.345 3.323v11.737c0 1.836-1.498 3.324-3.346 3.324H352.15c-1.846 0-3.344-1.488-3.344-3.324V188.94c0-1.835-1.497-3.323-3.345-3.323h-12.393c-1.846 0-3.344-1.488-3.344-3.324l.005-86.227c0-1.837-1.498-3.324-3.346-3.324h-6.689c-1.847 0-3.345 1.487-3.344 3.324l.014 86.227c0 1.836-1.497 3.324-3.344 3.324h-66.985c-1.847 0-3.345-1.488-3.345-3.324V98.274c0-1.836-1.498-3.324-3.345-3.324h-6.69c-1.847 0-3.344 1.488-3.344 3.324v84.018c0 1.836-1.498 3.324-3.345 3.324H158.98c-1.848 0-3.345-1.488-3.345-3.324l.015-86.227c0-1.837-1.497-3.324-3.345-3.324h-6.69c-1.846 0-3.344 1.487-3.344 3.324l.005 86.227c0 1.836-1.498 3.324-3.346 3.324H126.54c-1.847 0-3.345 1.488-3.345 3.323v11.738c0 1.835-1.498 3.323-3.345 3.323H70.772c-1.848 0-3.345-1.488-3.345-3.324V188.94c0-1.835-1.498-3.323-3.345-3.323H3.35c-2.53 0-4.143-2.68-2.948-4.895l39.047-72.346a3.355 3.355 0 014.478-1.386l38.063 19.463c1.644.84 3.661.197 4.506-1.436l2.733-5.284a3.314 3.314 0 00-1.445-4.475l-37.767-19.31a3.314 3.314 0 01-1.418-4.527l11.109-20.581c.035-.066.072-.129.11-.19l29.694-47.246a3.33 3.33 0 011.134-1.1L127.793.463A3.37 3.37 0 01129.497 0h213.007c.599 0 1.187.16 1.703.462l37.148 21.841c.46.271.85.648 1.133 1.1l29.695 47.245c.038.062.075.125.11.19z"/>
  </symbol>

  <symbol id="shape-2" viewBox="0 0 357 309">
    <path d="M352.513 308.76h-51.316a4.237 4.237 0 01-4.24-4.235v-27.222a4.237 4.237 0 00-4.24-4.236h-8.48a4.237 4.237 0 00-4.24 4.236v27.22a4.237 4.237 0 01-4.24 4.236H191.48a4.238 4.238 0 01-4.241-4.234v-62.578a4.237 4.237 0 00-4.24-4.234h-8.48a4.237 4.237 0 00-4.239 4.234v62.578a4.238 4.238 0 01-4.24 4.234H81.76a4.237 4.237 0 01-4.24-4.234v-27.222a4.238 4.238 0 00-4.239-4.236h-8.48a4.238 4.238 0 00-4.24 4.236v27.222a4.237 4.237 0 01-4.24 4.234H5.006c-3.267 0-5.307-3.535-3.669-6.357L175.09 2.872c1.634-2.816 5.704-2.816 7.337 0l173.755 299.53c1.638 2.822-.402 6.357-3.669 6.357z"/>
  </symbol>

  <symbol id="shape-3" viewBox="0 0 155 477">
    <path d="M154.586 2.797V230.1a2.663 2.663 0 01-2.655 2.674H93.518a2.666 2.666 0 00-2.656 2.675v5.347a2.666 2.666 0 002.656 2.676h58.413a2.664 2.664 0 012.655 2.673V473.45a2.664 2.664 0 01-2.655 2.674H3.241a2.666 2.666 0 01-2.655-2.674V266.4a2.666 2.666 0 012.654-2.676h37.174a2.665 2.665 0 002.656-2.673v-5.347a2.665 2.665 0 00-2.656-2.674H3.24a2.666 2.666 0 01-2.654-2.674v-24.463c0-1.48 1.19-2.676 2.654-2.676h37.174a2.665 2.665 0 002.656-2.673v-5.35a2.666 2.666 0 00-2.656-2.673H3.24a2.666 2.666 0 01-2.654-2.674V2.797A2.664 2.664 0 013.24.124h148.691a2.663 2.663 0 012.655 2.673z"/>
  </symbol>

  <symbol id="previous" viewBox="0 0 20 31">
    <path fill="none" stroke="#4285f4" stroke-width="6" d="M17 3L5 15.5 17 28"/>
  </symbol>

  <symbol id="next" viewBox="0 0 20 31">
    <path fill="none" stroke="#4285F4" stroke-width="6" d="M3 28l12-12.5L3 3"/>
  </symbol>

  <symbol id="confetti-0" viewBox="0 0 11 8">
    <path d="M10.661 7.644l-7.544-.237L.56.305l7.544.237z"/>
  </symbol>

  <symbol id="confetti-1" viewBox="0 0 9 9">
    <path d="M0 3.544L5.09.364l3.179 5.088-5.088 3.18z"/>
  </symbol>

  <symbol id="confetti-2" viewBox="0 0 8 9">
    <path d="M4 .364l4 8H0z"/>
  </symbol>

  <symbol id="pointer" viewBox="0 0 21.89 31.81">
    <circle cx="10.95" cy="10.95" r="10.95"/><path d="M11 23.82A13 13 0 016.32 23a.57.57 0 00-.69.83l4.83 7.75a.58.58 0 001 0l4.82-7.75a.57.57 0 00-.69-.84 12.65 12.65 0 01-4.59.83z"/>
  </symbol>

  <symbol id="twitter" viewBox="0 0 24 20">
    <path fill="#1da1f2" d="M23.666 2.94a9.475 9.475 0 01-2.749.763 4.851 4.851 0 002.105-2.682 9.511 9.511 0 01-3.04 1.177A4.753 4.753 0 0016.488.667c-2.644 0-4.787 2.17-4.787 4.847 0 .38.042.75.124 1.105-3.979-.202-7.506-2.132-9.867-5.065a4.872 4.872 0 00-.648 2.437c0 1.682.845 3.166 2.13 4.035A4.722 4.722 0 011.27 7.42v.061c0 2.349 1.65 4.308 3.84 4.754a4.74 4.74 0 01-2.162.083c.609 1.926 2.377 3.327 4.472 3.367a9.53 9.53 0 01-7.088 2.007 13.427 13.427 0 007.338 2.178c8.806 0 13.62-7.387 13.62-13.793 0-.21-.004-.42-.013-.628a9.799 9.799 0 002.388-2.51"/>
  </symbol>

  <symbol id="linkedin" viewBox="0 0 24 24">
    <path fill="#0077b5" d="M20.546 20.216H17.03V14.8c0-1.29-.025-2.952-1.828-2.952-1.831 0-2.11 1.406-2.11 2.859v5.508H9.576V9.08h3.373v1.522h.048c.47-.876 1.618-1.799 3.33-1.799 3.56 0 4.218 2.305 4.218 5.304v6.108zM5.61 7.558c-1.131 0-2.042-.899-2.042-2.006 0-1.107.91-2.006 2.042-2.006 1.125 0 2.039.9 2.039 2.006 0 1.107-.914 2.006-2.04 2.006zM3.849 9.081H7.37v11.135H3.849V9.08zM21.939.333H2.053c-.95 0-1.72.753-1.72 1.682v19.968c0 .93.77 1.684 1.72 1.684h19.884c.952 0 1.729-.755 1.729-1.684V2.015c0-.929-.777-1.682-1.729-1.682z"/>
  </symbol>

  <symbol id="facebook" viewBox="0 0 24 24">
    <path fill="#3664a2" d="M22.379 23.667c.71 0 1.287-.577 1.287-1.288V1.62c0-.711-.576-1.288-1.287-1.288H1.62C.91.333.333.91.333 1.621V22.38c0 .711.577 1.288 1.288 1.288H22.38z"/><path fill="#F6F6F6" d="M16.426 23.667v-9.033h3.032l.454-3.52h-3.486V8.867c0-1.02.283-1.714 1.745-1.714h1.864V4.003a24.946 24.946 0 00-2.716-.139c-2.688 0-4.528 1.64-4.528 4.653v2.596h-3.04v3.52h3.04v9.033h3.635z"/>
  </symbol>

  <symbol id="audio-off" viewBox="0 0 23 24">
    <path d="M0 7.622h6v8H0zM6 7.622l5-5v18l-5-5z"/>
  </symbol>

  <symbol id="audio-on" viewBox="0 0 23 24">
    <g>
      <path d="M0 7.622h6v8H0zM6 7.622l5-5v18l-5-5zM23 11.622c0 5.591-3.824 10.29-9 11.622V20.11a9.004 9.004 0 000-16.976V0c5.176 1.332 9 6.03 9 11.622z"/>
      <path d="M14.001 6.425A5.998 5.998 0 0117 11.622c0 2.22-1.206 4.16-2.999 5.197z"/>
    </g>
  </symbol>
</svg>
