<svg xmlns="http://www.w3.org/2000/svg" viewBox="0 0 48 48">
<g fill="#000"><path d="M15 15h18v18H15z"/><path fill-opacity=".2" d="M46.255 15A23.933 23.933 0 0148 24c0 3.183-.62 6.221-1.745 9.001L33 33V15z"/><path d="M46.255 33A24.08 24.08 0 0133 46.255V33z"/><path fill-opacity=".6" d="M15 15v18l-13.255.001A23.932 23.932 0 010 24c0-3.183.62-6.22 1.745-9H15zM33 33l.001 13.255A23.932 23.932 0 0124 48c-3.183 0-6.22-.62-9-1.745V33h18z"/><path fill-opacity=".4" d="M24 0c3.183 0 6.221.62 9.001 1.745L33 15H15V1.745A23.933 23.933 0 0124 0z"/><path fill-opacity=".2" d="M15 1.745V15H1.745A24.08 24.08 0 0115 1.745z"/></g></svg>
