<svg xmlns="http://www.w3.org/2000/svg" viewBox="0 0 48 48"><g fill="#000"><circle fill-opacity=".3" style="mix-blend-mode:overlay" cx="24" cy="24" r="12"/><path fill-opacity=".3" d="M3 33c6.627 0 12 5.373 12 12 0 .415-.021.825-.062 1.23A24.077 24.077 0 011.77 33.061C2.175 33.021 2.585 33 3 33zM14.938 1.77c.04.405.062.815.062 1.23 0 6.627-5.373 12-12 12-.415 0-.825-.021-1.23-.062A24.08 24.08 0 0114.659 1.886zM45 33c.415 0 .825.021 1.23.062A24.077 24.077 0 0133.061 46.23 12.124 12.124 0 0133 45c0-6.627 5.373-12 12-12zM33.062 1.77A24.081 24.081 0 0146.23 14.938c-.405.04-.815.062-1.23.062-6.627 0-12-5.373-12-12 0-.408.02-.81.06-1.208z"/><path d="M24 39a6 6 0 015.517 8.362A24.01 24.01 0 0124 48c-1.899 0-3.746-.22-5.517-.637A6 6 0 0124 39zM24 0c1.899 0 3.746.22 5.517.637a6 6 0 11-11.034.001A24.01 24.01 0 0124 0zM3 18A6 6 0 11.638 29.517 24.01 24.01 0 010 24c0-1.899.22-3.746.637-5.517A5.985 5.985 0 013 18zM45 18a5.98 5.98 0 012.362.483A24.01 24.01 0 0148 24c0 1.899-.22 3.746-.637 5.517A6 6 0 1145 18z"/></g></svg>
