<svg xmlns="http://www.w3.org/2000/svg" viewBox="0 0 48 48"><defs><linearGradient id="goggles-1" x1="50%" x2="50%" y1="0%" y2="100%"><stop offset="0%" stop-color="#fff" stop-opacity="0"/><stop offset="100%" stop-color="#fff" stop-opacity=".424"/></linearGradient></defs><circle fill="#FBBC05" cx="24" cy="24" r="24"/><path fill="#632f00" d="M47.668 20c.218 1.3.332 2.637.332 4s-.114 2.7-.332 4H38v-8z"/><circle fill="#D76800" cx="24" cy="24" r="17"/><path fill="#B15500" d="M24 7v34l-.323-.003C14.437 40.825 7 33.281 7 24c0-9.389 7.611-17 17-17z"/><circle fill="#EE8C00" cx="24" cy="24" r="13"/><circle fill="#000" cx="24" cy="24" r="9"/><path fill="url(#goggles-1)" transform="rotate(-45 21.308 21.308)" d="M34.308 25.115c0-7.18-5.82-13-13-13s-13 5.82-13 13 26 7.18 26 0z"/><path fill="#D76800" d="M43 22v4h-3v-4z"/><path fill="#B15500" d="M8 22v4H5v-4z"/><path fill="#D76800" d="M22 5h4v3h-4z"/><path fill="#B15500" d="M22 5h2v3h-2z"/><path fill="#D76800" d="M22 40h4v3h-4z"/><path fill="#B15500" d="M22 40h2v3h-2z"/><path fill="#D76800" d="M41.455 31.768l-2 3.464-2.598-1.5 2-3.464z"/><path fill="#B15500" d="M11.143 14.268l-2 3.464-2.598-1.5 2-3.464z"/><path fill="#D76800" d="M31.768 6.546l3.464 2-1.5 2.598-3.464-2z"/><path fill="#B15500" d="M14.268 36.856l3.464 2-1.5 2.598-3.464-2z"/><path fill="#D76800" d="M35.232 39.455l-3.464 2-1.5-2.598 3.464-2z"/><path fill="#B15500" d="M17.732 9.143l-3.464 2-1.5-2.598 3.464-2z"/><path fill="#D76800" d="M39.454 12.768l2 3.464-2.598 1.5-2-3.464z"/><path fill="#B15500" d="M9.144 30.268l2 3.464-2.598 1.5-2-3.464z"/></svg>
