<svg xmlns="http://www.w3.org/2000/svg" viewBox="0 0 48 48"><circle cx="24" cy="24" r="24" fill="#ea4335"/><path fill="#670101" d="M24 5l3.804 2.764-1.453 4.472H21.65l-1.453-4.472z"/><path fill="#b70505" d="M10.048 28.103l2.023-14.035L24 9.985l12.037 4.083 1.995 14.035-13.976 7.153z"/><path fill="#da2929" d="M24 9.985v25.271l12.037-21.188z"/><path fill="#8d0202" d="M24.056 35.256L12.07 14.068l-2.023 14.035z"/><path fill="#670101" d="M8.048 26.1l-1.005 7.97L24 43l17.068-8.93-1.016-7.97-9.954 5.258-6.042 3.192-5.994-3.164z"/><path fill="#9a1915" d="M24 43l17.068-8.93-1.016-7.97-9.954 5.258-6.042 3.192z"/></svg>
