<svg xmlns="http://www.w3.org/2000/svg" viewBox="0 0 47 47"><path d="M29.6.3c1.1.3 2.1.6 3.2 1.1l-3.3 3.2v7.8l5.1 5.1h7.7l3.3-3.3c.4 1 .8 2.1 1.1 3.2l-2.2 2.2v7.8l2.2 2.2c-.3 1.1-.6 2.1-1.1 3.2l-3.3-3.3h-7.7l-5.1 5.1v7.8l3.3 3.2c-1 .4-2.1.8-3.2 1.1l-2.2-2.2h-7.7l-2.2 2.2c-1.1-.3-2.1-.6-3.2-1.1l3.3-3.2v-7.8l-5.1-5.1H4.8l-3.3 3.3c-.4-1-.8-2.1-1.1-3.2l2.2-2.2v-7.8L.4 17.4c.3-1.1.6-2.1 1.1-3.2l3.3 3.3h7.7l5.1-5.1V4.6l-3.3-3.2c1-.4 2.1-.8 3.2-1.1l2.2 2.2h7.7L29.6.3zm-2.2 14.2h-7.7l-5.1 5.1v7.8l5.1 5.1h7.7l5.1-5.1v-7.8l-5.1-5.1z" opacity=".8"/></svg>
