<svg width="51" height="58" viewBox="0 0 51 58" xmlns="http://www.w3.org/2000/svg" xmlns:xlink="http://www.w3.org/1999/xlink"><defs><path id="pillar-2-a" d="M.002.68H39.29V51H.002z"/><path id="pillar-2-c" d="M.67.604h28.026v20.632H.67z"/></defs><g fill="none" fill-rule="evenodd"><g transform="translate(0 7)"><mask id="pillar-2-b" fill="#fff"><use xlink:href="#pillar-2-a"/></mask><path d="M38.039 23.565l-.766-1.59c-1.134-2.365-2.883-4.384-4.737-5.465l-7.071-4.128c-.623-.364-1.218-.43-1.655-.17l-4.145 2.394-.026-.046-4.077-7.164a5.353 5.353 0 00-.937-1.202 3.97 3.97 0 00-.718-.56L6.84 1.507C5.645.812 4.493.555 3.519.737L1.456 1.999l-.14.127C.49 2.875.039 4.123.033 5.68l-.026 9.484-.005 2.652L19.57 51l19.226-10.03.46-.28.034-12.097c.003-1.557-.44-3.325-1.251-5.03" fill="#34A853" mask="url(#pillar-2-b)"/></g><path d="M49.756 23.676l-.763-1.612c-1.13-2.4-2.875-4.448-4.72-5.544l-7.046-4.188c-.621-.369-1.213-.436-1.649-.173l-4.13 2.43L20 21.495l.028.047 4.128-2.429c.436-.26 1.028-.196 1.649.173l7.049 4.187c1.845 1.096 3.587 3.145 4.72 5.544l.76 1.612c.809 1.729 1.253 3.522 1.25 5.102L39.547 48l8.72-5.477 2.702-1.69L51 28.776c.006-1.58-.438-3.373-1.244-5.101" fill="#72D37B"/><g transform="translate(3)"><mask id="pillar-2-d" fill="#fff"><use xlink:href="#pillar-2-c"/></mask><path d="M24.528 7.284a5.104 5.104 0 00-1.09-1.32 3.682 3.682 0 00-.589-.434l-7.174-4.105C14.146.548 12.688.378 11.568.887l-.556.34L.67 7.476c.99-.179 2.16.077 3.373.77l7.172 4.105c.252.141.493.34.727.558a5.2 5.2 0 01.952 1.196l4.138 7.13 11.664-6.776-4.168-7.176z" fill="#0D9158" mask="url(#pillar-2-d)"/></g></g></svg>
