<svg width="48px" height="56px" viewBox="0 0 48 56" xmlns="http://www.w3.org/2000/svg" xmlns:xlink="http://www.w3.org/1999/xlink"><defs><path id="pillar-0-a" d="M.203 31.976L37.803 51V19.796L.203.544"/><path id="pillar-0-c" d="M.203 31.976L37.803 51V19.796L.203.544"/><path id="pillar-0-e" d="M.203 31.976L37.803 51V19.796L.203.544"/></defs><g fill="none" fill-rule="evenodd"><path fill="#76D1FF" d="M10.1 0L0 4.985 37.9 24 48 19.015z"/><path fill="#0250C1" d="M38 25.013V56l10-5.016V20z"/><path fill="#4285F4" d="M0 36.771L38 56V24.462L0 5z"/><g transform="translate(0 5)"><mask id="pillar-0-b" fill="#fff"><use xlink:href="#pillar-0-a"/></mask><path stroke="#FFF" stroke-width=".5" stroke-linecap="round" stroke-linejoin="round" mask="url(#pillar-0-b)" d="M-.332 3.446l17.064 29.065 2.8 1.797 7.661-4.982 10.661-6.935"/></g><path d="M38 51L27 34l11 17z" fill="#FFF"/><g transform="translate(0 5)"><mask id="pillar-0-d" fill="#fff"><use xlink:href="#pillar-0-c"/></mask><path stroke="#FFF" stroke-width=".5" stroke-linecap="round" stroke-linejoin="round" mask="url(#pillar-0-d)" d="M37.855 46.356L27.194 29.327"/></g><path d="M0 33l11-6-11 6z" fill="#FFF"/><g transform="translate(0 5)"><mask id="pillar-0-f" fill="#fff"><use xlink:href="#pillar-0-e"/></mask><path stroke="#FFF" stroke-width=".5" stroke-linecap="round" stroke-linejoin="round" mask="url(#pillar-0-f)" d="M10.837 22.491L.226 28.538"/></g></g></svg>
