<svg width="39" height="58" viewBox="0 0 39 58" xmlns="http://www.w3.org/2000/svg" xmlns:xlink="http://www.w3.org/1999/xlink"><defs><path id="pillar-3-a" d="M.968.558h27.735v31.924H.968z"/></defs><g fill="none" fill-rule="evenodd"><path fill="#FFDF7B" d="M0 18.001L4.443 20l.014-4z"/><path d="M16.092 30.606c-1.887-.988-3.416.06-3.416 2.344 0 1.55.706 3.27 1.753 4.527v6.215l3.329 1.745v-6.22c1.047-.157 1.75-1.139 1.75-2.69 0-2.281-1.526-4.932-3.416-5.92zm7.718-.74l.024-7.774c.013-4.422-3.406-9.792-7.64-12.008-4.235-2.219-7.679-.44-7.695 3.978l-.02 7.772 15.33 8.033zm4.946 2.599l3.43 1.795L32.101 58 0 41.174l.085-23.739 3.42 1.789.023-7.246C3.551 4.71 9.22 1.78 16.193 5.432c6.975 3.651 12.608 12.496 12.584 19.766l-.02 7.267z" fill="#FABB05"/><path fill="#FFDF7B" d="M8.477 21.839l6.244-3.309 9.114 4.78-.026 6.557z"/><path d="M14.72 9.463c-3.53-1.134-6.206.708-6.22 4.599l-.023 7.772 6.244-3.304V9.463z" fill="#ED8C03"/><g transform="translate(6.305)"><mask id="pillar-3-b" fill="#fff"><use xlink:href="#pillar-3-a"/></mask><path d="M28.681 29.162l.022-7.27c.024-7.267-5.61-16.112-12.584-19.763C12.599.285 9.41.119 7.11 1.343L.968 4.596c2.044-1.041 4.778-.998 7.811.32.365.156.73.323 1.098.516 6.977 3.65 12.608 12.497 12.584 19.764l-.024 7.267.038.02 6.222-3.314-.016-.007z" fill="#FFDF7B" mask="url(#pillar-3-b)"/></g><path fill="#ED8C03" d="M32.165 34.255l.011.004-.027 7.197-.061 16.542 6.241-3.301.088-23.739-.026-.014z"/><path fill="#FFD357" d="M35.002 29.169l-6.223 3.313 3.388 1.772 6.222-3.311z"/></g></svg>
