<svg xmlns="http://www.w3.org/2000/svg" viewBox="0 0 48 48"><circle cx="24" cy="24" r="24" fill="#34A853"/><path fill="#188038" d="M24 5c6.204 0 11.713 2.973 15.181 7.573L30 19H18l-9.181-6.427C12.287 7.973 17.796 5 24 5zM24 29v14c-2.969 0-5.778-.68-8.281-1.895L20.4 29H24z"/><path fill="#37c55d" d="M27.6 29l4.68 12.105A18.924 18.924 0 0124 43V29h3.6zM29.637 5.85a19.033 19.033 0 019.545 6.724L30 19h-6z"/><path fill="#0d652d" d="M22 29l-2.51 13.462a18.863 18.863 0 01-3.771-1.357L20.4 29H22z"/><path fill="#70d68b" d="M27.6 29l4.68 12.105c-.547.266-1.11.506-1.685.72L26.93 29h.669zM37.745 10.883c.511.535.99 1.1 1.437 1.691L30 19h-1.002z"/><path fill="#0d652d" d="M12.294 9.033L20.024 19H18l-9.181-6.427c1-1.326 2.169-2.517 3.475-3.54z"/><path fill="#1e8e3e" d="M18 19h12l-2.4 10h-7.2z"/><path fill="#01511e" d="M18 19h6v10h-3.6z"/></svg>
