<svg xmlns="http://www.w3.org/2000/svg" viewBox="0 0 48 48"><circle fill="#4285f4" cx="24" cy="24" r="24"/><g fill="#021f41"><path d="M33.013 8l7.464 6.532c.124.215.243.433.359.653l-7.823 6.848H5.1c.606-5.895 3.907-10.99 8.65-14.034L33.013 8z"/><path d="M14.987 26l-7.811 6.837c.124.236.253.469.387.699l7.424 6.497H34.2C38.96 37 42.279 31.901 42.896 26H14.987z"/></g><g fill="#053975"><path d="M33.013 8l7.464 6.532c.092.16.182.322.27.486l-33.544.093A19.09 19.09 0 0113.751 8L33.013 8z"/><path d="M14.987 26l-7.811 6.837.096.18 33.405.094A18.876 18.876 0 0042.896 26L14.987 26z"/></g><g fill="#fbbc05"><path d="M32 12l3 3-3 3-3-3z"/><path d="M24 12l3 3-3 3-3-3z"/><path d="M16 12l3 3-3 3-3-3z"/><path d="M16 30l-3 3 3 3 3-3z"/><path d="M24 30l-3 3 3 3 3-3z"/><path d="M32 30l-3 3 3 3 3-3z"/></g><g fill="#ee8c00"><path d="M32 12v6l-3-3z"/><path d="M24 12v6l-3-3z"/><path d="M16 12v6l-3-3z"/><path d="M16 30v6l3-3z"/><path d="M24 30v6l3-3z"/><path d="M32 30v6l3-3z"/></g></svg>
